<svg width="40" height="40" viewBox="0 0 40 40" fill="none" xmlns="http://www.w3.org/2000/svg">
<g id="pocket">
<path id="Icon" d="M13.3333 16.6667L20 23.3333L26.6667 16.6667M6.66666 5H33.3333C34.2174 5 35.0652 5.35119 35.6904 5.97631C36.3155 6.60143 36.6667 7.44928 36.6667 8.33333V18.3333C36.6667 22.7536 34.9107 26.9928 31.7851 30.1184C28.6595 33.2441 24.4203 35 20 35C17.8113 35 15.644 34.5689 13.6219 33.7313C11.5998 32.8937 9.76253 31.6661 8.21488 30.1184C5.08928 26.9928 3.33333 22.7536 3.33333 18.3333V8.33333C3.33333 7.44928 3.68452 6.60143 4.30964 5.97631C4.93476 5.35119 5.78261 5 6.66666 5Z" stroke="#DEE5F0" stroke-width="2" stroke-linecap="round" stroke-linejoin="round"/>
</g>
</svg>
